{"title":"Jungle Book (2016) Blu-ray rip x264 AAC Hindi -DDR","uid":15531338,"size":945867453,"categoryP":"video","categoryS":"movies","magnet":"?xt=urn:btih:0ef56550ba1efcbf6684ac049c9a1419b9a6df65&amp;dn=Jungle+Book+%282016%29+Blu-ray+rip+x264+AAC+Hindi+-DDR&amp;tr=udp%3A%2F%2Ftracker.leechers-paradise.org%3A6969&amp;tr=udp%3A%2F%2Fzer0day.ch%3A1337&amp;tr=udp%3A%2F%2Fopen.demonii.com%3A1337&amp;tr=udp%3A%2F%2Ftracker.coppersurfer.tk%3A6969&amp;tr=udp%3A%2F%2Fexodus.desync.com%3A6969","seeders":13,"leechers":15,"uploader":"SaM","files":3,"time":1470832512,"description":"SD x264 Blu-ray Rip\r\n\r\nStereo AAC Hindi\r\n\r\nNo Subtitles \r\n \nhttp://extraimago.com/image/wjg7 \nhttp://extraimago.com/image/wjg1 \nhttp://extraimago.com/image/wjgc \nhttp://extraimago.com/image/wjgE \nhttp://extraimago.com/image/wjgO \nhttp://extraimago.com/image/wjgS \nhttp://extraimago.com/image/wjgq \nhttp://extraimago.com/image/wjgy \nhttp://extraimago.com/image/wjgL\r\n\r\nSpecs:\r\n\r\nSource: BD50 @ DDR\r\n\r\nFormat : Matroska\r\nFile size : 886 MiB\r\nDuration : 1h 45mn\r\nOverall bit rate : 1 170 Kbps\r\n\r\n\r\nVideo\r\nFormat : AVC\r\nFormat/Info : Advanced Video Codec\r\nFormat profile :   \r\nFormat settings, CABAC : Yes\r\nFormat settings, ReFrames : 5 frames\r\nCodec ID : V_MPEG4/ISO/AVC\r\nDuration : 1h 45mn\r\nBit rate : 1 040 Kbps\r\nWidth : 720 pixels\r\nHeight : 390 pixels\r\nDisplay aspect ratio : 1.85:1\r\nFrame rate mode : Constant\r\nFrame rate : 23.976 (24000/1001) fps\r\ncolor space : YUV\r\nChroma subsampling : 4:2:0\r\nBit depth : 8 bits\r\nScan type : Progressive\r\nBits/(Pixel*Frame) : 0.155\r\nStream size : 788 MiB (89%)\r\ncolor primaries : BT.709\r\nTransfer characteristics : BT.709\r\nMatrix coefficients : BT.709\r\n\r\nAudio #1\r\nFormat : AAC\r\nFormat/Info : Advanced Audio Codec\r\nFormat profile : LC\r\nCodec ID : A_AAC\r\nDuration : 1h 45mn\r\nBit rate : 128 Kbps\r\nChannel(s) : 6 channels\r\nChannel positions : Front: L C R, Side: L R, LFE\r\nSampling rate : 48.0 KHz\r\nFrame rate : 46.875 fps (1024 spf)\r\nCompression mode : Lossy\r\nDelay relative to video : 9ms\r\nStream size : 96.6 MiB (11%)\r\nDefault : Yes\r\nForced : No\r\n\r\n\r\nChapters : YES","torrent":{"xt":"urn:btih:0ef56550ba1efcbf6684ac049c9a1419b9a6df65","amp;dn":"Jungle+Book+%282016%29+Blu-ray+rip+x264+AAC+Hindi+-DDR","amp;tr":["udp%3A%2F%2Ftracker.leechers-paradise.org%3A6969","udp%3A%2F%2Fzer0day.ch%3A1337","udp%3A%2F%2Fopen.demonii.com%3A1337","udp%3A%2F%2Ftracker.coppersurfer.tk%3A6969","udp%3A%2F%2Fexodus.desync.com%3A6969"],"infoHash":"0ef56550ba1efcbf6684ac049c9a1419b9a6df65","infoHashBuffer":{"type":"Buffer","data":[14,245,101,80,186,30,252,191,102,132,172,4,156,154,20,25,185,166,223,101]},"announce":[],"urlList":[]}}